<svg id="Layer_1" data-name="Layer 1" xmlns="http://www.w3.org/2000/svg" viewBox="0 0 132.9 189.7"><defs><style>.cls-1{fill:#093f68;}.cls-2{fill:#ebe2d9;}.cls-3{fill:#70cc40;}</style></defs><g id="_427_pear_outline" data-name=" 427 pear outline"><path class="cls-1" d="M212.7,245.5a3.1,3.1,0,0,0,1.3.6c2.5.7,5.5,1.3,7.5-.4s1.8-5.6-.5-7.3a6.2,6.2,0,0,0-7.5.6C212.3,240.3,211.3,244.1,212.7,245.5Z" transform="translate(-136.5 -58.2)"/><path class="cls-1" d="M218,247.8a12.9,12.9,0,0,1-4.3-.7,3.2,3.2,0,0,1-1.7-.9h0c-2-1.9-.7-6.4.7-7.9a7.4,7.4,0,0,1,8.9-.7,5.6,5.6,0,0,1,2.3,4.6,4.9,4.9,0,0,1-1.8,4.3A6.1,6.1,0,0,1,218,247.8Zm-4.6-3,.9.4c2.1.6,4.8,1.1,6.5-.3a2.9,2.9,0,0,0,1.1-2.6,4.2,4.2,0,0,0-1.5-3.1,5.3,5.3,0,0,0-6.2.5c-1,1.1-1.6,4.3-.8,5.1Z" transform="translate(-136.5 -58.2)"/><path class="cls-2" d="M192.9,138.5c-.9-10.1-3.2-20.2,17.3-23.7s27.3,9.4,27.2,16.5-4.1,18.8,14,41.1,14.6,45.4-11.6,62.4S183.9,240,173,217.5s-5.9-36.6,5.7-49.6S193.9,148.7,192.9,138.5Z" transform="translate(-136.5 -58.2)"/><path class="cls-1" d="M213.5,243.8A45.8,45.8,0,0,1,172.1,218c-9.5-19.6-7.7-35.7,5.8-50.8,11.1-12.5,14.9-18.6,14-28.6h0a9.9,9.9,0,0,0-.2-1.7c-1-9.7-2-19.6,18.3-23.1,11.7-2,18.5,1.3,22.2,4.5a17.4,17.4,0,0,1,6.2,12.9c0,1-.1,2.1-.2,3.2-.5,7.2-1.4,18.2,14,37.4,9,11.1,12.8,22.7,11.1,33.5s-9.7,21.8-22.9,30.3A48.7,48.7,0,0,1,213.5,243.8Zm3.2-128.5a47.2,47.2,0,0,0-6.4.5c-18.3,3.2-17.5,11.4-16.5,20.9,0,.6.1,1.2.1,1.8h0c1,10.8-3.4,17.7-14.5,30.1-12.8,14.3-14.6,29.7-5.5,48.5a44.1,44.1,0,0,0,27.9,23.1c12.5,3.5,25.8,1.3,37.5-6.3s20.3-18.3,22-29-2.1-21.2-10.7-31.8c-16-19.8-15-31.3-14.4-38.9.1-1,.2-2,.2-2.9a15.9,15.9,0,0,0-5.6-11.5C228.2,117.6,223.8,115.3,216.7,115.3Z" transform="translate(-136.5 -58.2)"/><path class="cls-1" d="M215,124.2h-.2a1,1,0,0,1-.8-1.2h0c0-.1,2.2-13.1-9.8-25.9a1,1,0,0,1,0-1.4,1.1,1.1,0,0,1,1.5,0c12.7,13.6,10.4,27.1,10.3,27.7A1,1,0,0,1,215,124.2Z" transform="translate(-136.5 -58.2)"/><path class="cls-1" d="M213.3,124.3a18.9,18.9,0,0,1-5.3-.8,1,1,0,0,1-.8-1.2,1.1,1.1,0,0,1,1.3-.7h.1c7.3,2.1,11.4-1.3,11.6-1.4a1,1,0,0,1,1.4,0,1.1,1.1,0,0,1,0,1.5h-.1A12.9,12.9,0,0,1,213.3,124.3Z" transform="translate(-136.5 -58.2)"/><path class="cls-1" d="M198.3,231.9h-.5c-13.4-8-18.5-17.2-20.5-23.5a24.8,24.8,0,0,1-1-12.1,1.1,1.1,0,0,1,1.2-.8,1,1,0,0,1,.8,1.2h0c-.2.8-3.8,18.9,20.5,33.4a1,1,0,0,1,.4,1.4A.9.9,0,0,1,198.3,231.9Z" transform="translate(-136.5 -58.2)"/><path class="cls-1" d="M177,187.2h-.4a.9.9,0,0,1-.5-1.3l2.1-5.1a1,1,0,0,1,1.3-.6,1.1,1.1,0,0,1,.6,1.4h0l-2.2,5.1A.9.9,0,0,1,177,187.2Z" transform="translate(-136.5 -58.2)"/><path class="cls-1" d="M137.6,132.7a.9.9,0,0,1-.7-.3,1,1,0,0,1-.1-1.4c.4-.4,9.6-10.8,30.4-21.5S219.6,87.8,268.4,87h0a1,1,0,0,1,1,1,1,1,0,0,1-1,1.1c-92.5,1.5-129.7,42.9-130.1,43.3A1.1,1.1,0,0,1,137.6,132.7Z" transform="translate(-136.5 -58.2)"/><path class="cls-3" d="M233.7,89.6s-12.4-20.2,11.1-30.4C244.8,59.2,258.8,78.5,233.7,89.6Z" transform="translate(-136.5 -58.2)"/><path class="cls-1" d="M233.7,90.6a1.1,1.1,0,0,1-.9-.5c-.2-.4-5.5-9-2.6-18.1,1.9-5.9,6.6-10.5,14.2-13.8a1,1,0,0,1,1.2.4c.3.3,5.9,8.3,3.5,17.2-1.6,6.1-6.7,11.1-15,14.7Zm10.7-30.1c-6.5,3-10.7,7.1-12.2,12.1-2.1,6.8.8,13.5,1.9,15.7,7.2-3.4,11.6-7.7,13.1-13S245.6,62.5,244.4,60.5Z" transform="translate(-136.5 -58.2)"/><path class="cls-3" d="M244.8,59.2s-8.6,16.9-11.1,30.4" transform="translate(-136.5 -58.2)"/><path class="cls-1" d="M233.7,90.6h-.2a1.1,1.1,0,0,1-.9-1.2h0c2.6-13.5,11.2-30.5,11.2-30.7a1,1,0,0,1,1.4-.4h0a.9.9,0,0,1,.4,1.3c-.1.2-8.5,16.9-11,30.1A1.1,1.1,0,0,1,233.7,90.6Z" transform="translate(-136.5 -58.2)"/><path class="cls-3" d="M165.2,94s-23.1-5.4-13.7-29.3C151.5,64.7,175.1,68.5,165.2,94Z" transform="translate(-136.5 -58.2)"/><path class="cls-1" d="M165.2,95.1h-.3c-.4-.1-10.2-2.6-14.6-11-2.8-5.4-2.8-12.1.3-19.7a.9.9,0,0,1,1.1-.6c.4,0,10,1.6,14.6,9.6,3.2,5.5,3.1,12.6-.2,21A1,1,0,0,1,165.2,95.1ZM152.1,65.9c-2.4,6.7-2.5,12.5,0,17.3s10.1,8.9,12.5,9.7c2.7-7.5,2.7-13.7,0-18.5S154.4,66.5,152.1,65.9Z" transform="translate(-136.5 -58.2)"/><path class="cls-3" d="M151.5,64.7s5.9,17.9,13.7,29.3" transform="translate(-136.5 -58.2)"/><path class="cls-1" d="M165.2,95.1a1.1,1.1,0,0,1-.9-.5c-7.7-11.3-13.7-29.4-13.8-29.5a1.1,1.1,0,0,1,1.9-.9c0,.1,0,.2.1.2s6,18,13.5,29.1a1,1,0,0,1-.3,1.4Z" transform="translate(-136.5 -58.2)"/><path class="cls-3" d="M210.5,79.3S194,96.3,178.4,76C178.4,76,193.7,57.6,210.5,79.3Z" transform="translate(-136.5 -58.2)"/><path class="cls-1" d="M195.4,87h-1c-6.1-.4-11.8-3.9-16.8-10.4a1.1,1.1,0,0,1,0-1.3c.3-.3,6.7-7.7,15.8-7.6,6.4.1,12.4,3.8,18,11a1,1,0,0,1-.1,1.3C211,80.3,204.4,87,195.4,87ZM179.7,76c4.5,5.6,9.4,8.6,14.7,8.9,7,.4,12.8-4.1,14.7-5.7-5-6.2-10.3-9.4-15.8-9.5h-.2C186.4,69.8,181.3,74.3,179.7,76Z" transform="translate(-136.5 -58.2)"/><path class="cls-3" d="M178.4,76s18.4,4.1,32.1,3.3" transform="translate(-136.5 -58.2)"/><path class="cls-1" d="M206.9,80.4c-13.1,0-28.6-3.4-28.8-3.5a1,1,0,0,1-.7-1.2.9.9,0,0,1,1.2-.7c.2,0,18.5,4,31.9,3.3.5-.1,1,.4,1.1.9a1,1,0,0,1-1,1.1Z" transform="translate(-136.5 -58.2)"/><path class="cls-3" d="M165.3,111.6s22.5,7.6,10.9,30.4C176.2,142,153,136.1,165.3,111.6Z" transform="translate(-136.5 -58.2)"/><path class="cls-1" d="M176.2,143.1H176c-.4-.1-9.9-2.6-13.7-11-2.7-5.8-2-12.8,2.1-20.9a.9.9,0,0,1,1.2-.5c.4.1,10,3.4,13.6,12.2,2.3,5.7,1.6,12.3-2.1,19.6A1,1,0,0,1,176.2,143.1Zm-10.4-30.2c-3.4,7.2-4,13.3-1.7,18.2s9.3,8.9,11.6,9.7c3-6.5,3.6-12.2,1.6-17.2s-9.2-9.7-11.5-10.7Z" transform="translate(-136.5 -58.2)"/><path class="cls-3" d="M176.2,142s-4.2-18.4-10.9-30.4" transform="translate(-136.5 -58.2)"/><path class="cls-1" d="M176.2,143.1a1.1,1.1,0,0,1-1-.8c0-.2-4.3-18.5-10.8-30.2a1,1,0,0,1,1.8-1c6.6,12,10.9,30.5,11,30.7a1.1,1.1,0,0,1-.8,1.2h-.2Z" transform="translate(-136.5 -58.2)"/><path class="cls-3" d="M247.2,89.8s23.7.2,19.9,25.6C267.1,115.4,243.2,117,247.2,89.8Z" transform="translate(-136.5 -58.2)"/><path class="cls-1" d="M266.2,116.4c-2.6,0-10.3-.5-15.5-6.2s-5.8-11.5-4.5-20.5a1.1,1.1,0,0,1,1-.9h0c.4,0,10.5.2,16.7,7.4,4,4.7,5.4,11.2,4.2,19.3a1.2,1.2,0,0,1-1,.9ZM248.1,90.9c-1,7.9.4,13.9,4,17.9s11.7,5.5,14,5.5c1-7.1-.3-12.7-3.8-16.7S250.6,91.1,248.1,90.9Z" transform="translate(-136.5 -58.2)"/><path class="cls-3" d="M267.1,115.4s-9.8-16.2-19.9-25.6" transform="translate(-136.5 -58.2)"/><path class="cls-1" d="M267.1,116.4a1.1,1.1,0,0,1-.9-.5c-.1-.2-9.8-16.2-19.7-25.3a1.2,1.2,0,0,1-.1-1.5h.1a1,1,0,0,1,1.4,0c10.1,9.4,19.9,25.6,20,25.8a1,1,0,0,1-.3,1.4Z" transform="translate(-136.5 -58.2)"/><path class="cls-1" d="M156.2,118h-.3a.9.9,0,0,1-.7-1.2,106.4,106.4,0,0,1,16.3-33.5,65.5,65.5,0,0,1,9.9-11.1,1,1,0,0,1,1.4.1h0a1,1,0,0,1-.1,1.4c-.2.2-17.1,14.6-25.5,43.6A1.2,1.2,0,0,1,156.2,118Z" transform="translate(-136.5 -58.2)"/></g></svg>